<?xml version="1.0" encoding="UTF-8" standalone="no"?>
<svg
   xmlns:sketch="http://www.bohemiancoding.com/sketch/ns"
   xmlns:dc="http://purl.org/dc/elements/1.1/"
   xmlns:cc="http://creativecommons.org/ns#"
   xmlns:rdf="http://www.w3.org/1999/02/22-rdf-syntax-ns#"
   xmlns:svg="http://www.w3.org/2000/svg"
   xmlns="http://www.w3.org/2000/svg"
   xmlns:sodipodi="http://sodipodi.sourceforge.net/DTD/sodipodi-0.dtd"
   xmlns:inkscape="http://www.inkscape.org/namespaces/inkscape"
   width="25px"
   height="25px"
   viewBox="0 0 25 25"
   version="1.1"
   id="svg2"
   inkscape:version="0.48.4 r9939"
   sodipodi:docname="dots.svg">
  <metadata
     id="metadata62">
    <rdf:RDF>
      <cc:Work
         rdf:about="">
        <dc:format>image/svg+xml</dc:format>
        <dc:type
           rdf:resource="http://purl.org/dc/dcmitype/StillImage" />
      </cc:Work>
    </rdf:RDF>
  </metadata>
  <sodipodi:namedview
     pagecolor="#ffffff"
     bordercolor="#666666"
     borderopacity="1"
     objecttolerance="10"
     gridtolerance="10"
     guidetolerance="10"
     inkscape:pageopacity="0"
     inkscape:pageshadow="2"
     inkscape:window-width="753"
     inkscape:window-height="480"
     id="namedview60"
     showgrid="false"
     inkscape:zoom="9.44"
     inkscape:cx="12.5"
     inkscape:cy="12.5"
     inkscape:window-x="49"
     inkscape:window-y="34"
     inkscape:window-maximized="0"
     inkscape:current-layer="svg2" />
  <!-- Generator: Sketch 3.2.2 (9983) - http://www.bohemiancoding.com/sketch -->
  <title
     id="title4">dots</title>
  <desc
     id="desc6">Created with Sketch.</desc>
  <defs
     id="defs8" />
  <g
     id="Page-1"
     stroke="none"
     stroke-width="1"
     fill="none"
     fill-rule="evenodd"
     sketch:type="MSPage"
     style="fill:#074b6e;fill-opacity:1">
    <g
       id="Artboard-1"
       sketch:type="MSArtboardGroup"
       transform="translate(-140.000000, -154.000000)"
       fill="#D57E00"
       style="fill:#074b6e;fill-opacity:1">
      <g
         id="dots"
         sketch:type="MSLayerGroup"
         transform="translate(140.000000, 154.000000)"
         style="fill:#074b6e;fill-opacity:1">
        <g
           id="dot"
           sketch:type="MSShapeGroup"
           style="fill:#074b6e;fill-opacity:1">
          <g
             id="g14"
             style="fill:#074b6e;fill-opacity:1">
            <circle
               cx="2.5"
               cy="2.5"
               r="2.5"
               id="circle16"
               d="M 5,2.5 C 5,3.8807119 3.8807119,5 2.5,5 1.1192881,5 0,3.8807119 0,2.5 0,1.1192881 1.1192881,0 2.5,0 3.8807119,0 5,1.1192881 5,2.5 z"
               style="fill:#074b6e;fill-opacity:1" />
          </g>
        </g>
        <g
           id="g18"
           transform="translate(0.000000, 20.000000)"
           sketch:type="MSShapeGroup"
           style="fill:#074b6e;fill-opacity:1">
          <g
             id="g20"
             style="fill:#074b6e;fill-opacity:1">
            <circle
               cx="2.5"
               cy="2.5"
               r="2.5"
               id="circle22"
               d="M 5,2.5 C 5,3.8807119 3.8807119,5 2.5,5 1.1192881,5 0,3.8807119 0,2.5 0,1.1192881 1.1192881,0 2.5,0 3.8807119,0 5,1.1192881 5,2.5 z"
               style="fill:#074b6e;fill-opacity:1" />
          </g>
        </g>
        <g
           id="g24"
           transform="translate(0.000000, 10.000000)"
           sketch:type="MSShapeGroup"
           style="fill:#074b6e;fill-opacity:1">
          <g
             id="g26"
             style="fill:#074b6e;fill-opacity:1">
            <circle
               cx="2.5"
               cy="2.5"
               r="2.5"
               id="circle28"
               d="M 5,2.5 C 5,3.8807119 3.8807119,5 2.5,5 1.1192881,5 0,3.8807119 0,2.5 0,1.1192881 1.1192881,0 2.5,0 3.8807119,0 5,1.1192881 5,2.5 z"
               style="fill:#074b6e;fill-opacity:1" />
          </g>
        </g>
        <g
           id="g30"
           transform="translate(10.000000, 0.000000)"
           sketch:type="MSShapeGroup"
           style="fill:#074b6e;fill-opacity:1">
          <g
             id="g32"
             style="fill:#074b6e;fill-opacity:1">
            <circle
               cx="2.5"
               cy="2.5"
               r="2.5"
               id="circle34"
               d="M 5,2.5 C 5,3.8807119 3.8807119,5 2.5,5 1.1192881,5 0,3.8807119 0,2.5 0,1.1192881 1.1192881,0 2.5,0 3.8807119,0 5,1.1192881 5,2.5 z"
               style="fill:#074b6e;fill-opacity:1" />
          </g>
        </g>
        <g
           id="g36"
           transform="translate(10.000000, 20.000000)"
           sketch:type="MSShapeGroup"
           style="fill:#074b6e;fill-opacity:1">
          <g
             id="g38"
             style="fill:#074b6e;fill-opacity:1">
            <circle
               cx="2.5"
               cy="2.5"
               r="2.5"
               id="circle40"
               d="M 5,2.5 C 5,3.8807119 3.8807119,5 2.5,5 1.1192881,5 0,3.8807119 0,2.5 0,1.1192881 1.1192881,0 2.5,0 3.8807119,0 5,1.1192881 5,2.5 z"
               style="fill:#074b6e;fill-opacity:1" />
          </g>
        </g>
        <g
           id="g42"
           transform="translate(20.000000, 0.000000)"
           sketch:type="MSShapeGroup"
           style="fill:#074b6e;fill-opacity:1">
          <g
             id="g44"
             style="fill:#074b6e;fill-opacity:1">
            <circle
               cx="2.5"
               cy="2.5"
               r="2.5"
               id="circle46"
               d="M 5,2.5 C 5,3.8807119 3.8807119,5 2.5,5 1.1192881,5 0,3.8807119 0,2.5 0,1.1192881 1.1192881,0 2.5,0 3.8807119,0 5,1.1192881 5,2.5 z"
               style="fill:#074b6e;fill-opacity:1" />
          </g>
        </g>
        <g
           id="g48"
           transform="translate(20.000000, 20.000000)"
           sketch:type="MSShapeGroup"
           style="fill:#074b6e;fill-opacity:1">
          <g
             id="g50"
             style="fill:#074b6e;fill-opacity:1">
            <circle
               cx="2.5"
               cy="2.5"
               r="2.5"
               id="circle52"
               d="M 5,2.5 C 5,3.8807119 3.8807119,5 2.5,5 1.1192881,5 0,3.8807119 0,2.5 0,1.1192881 1.1192881,0 2.5,0 3.8807119,0 5,1.1192881 5,2.5 z"
               style="fill:#074b6e;fill-opacity:1" />
          </g>
        </g>
        <g
           id="g54"
           transform="translate(20.000000, 10.000000)"
           sketch:type="MSShapeGroup"
           style="fill:#074b6e;fill-opacity:1">
          <g
             id="g56"
             style="fill:#074b6e;fill-opacity:1">
            <circle
               cx="2.5"
               cy="2.5"
               r="2.5"
               id="circle58"
               d="M 5,2.5 C 5,3.8807119 3.8807119,5 2.5,5 1.1192881,5 0,3.8807119 0,2.5 0,1.1192881 1.1192881,0 2.5,0 3.8807119,0 5,1.1192881 5,2.5 z"
               style="fill:#074b6e;fill-opacity:1" />
          </g>
        </g>
      </g>
    </g>
  </g>
</svg>
